<?xml version="1.0" encoding="UTF-8"?>
<svg id="Capa_2" data-name="Capa 2" xmlns="http://www.w3.org/2000/svg" viewBox="0 0 172 47.06">
  <defs>
    <style>
      .cls-1 {
        fill: #e77b8a;
      }

      .cls-2 {
        letter-spacing: -.04em;
      }

      .cls-3, .cls-4 {
        fill: #344e41;
      }

      .cls-4 {
        font-family: Gotham-Medium, Gotham;
        font-size: 21.59px;
        font-weight: 500;
      }
    </style>
  </defs>
  <g id="Capa_1-2" data-name="Capa 1">
    <text class="cls-4" transform="translate(0 18.35)"><tspan x="0" y="0">F</tspan><tspan class="cls-2" x="14.16" y="0">L</tspan><tspan x="26.66" y="0">ORES DE</tspan><tspan x="0" y="22.77">LA TIERRA</tspan></text>
    <g>
      <path class="cls-3" d="m143.73,2.57h0s.36.22.36.22c-.12-.07-.24-.14-.36-.22Zm6.46-.04c-.2.18-.42.35-.62.55.2-.19.42-.36.63-.54.05-.05.1-.1.16-.15-.06.04-.12.09-.17.14Zm2.04,6.28c-.08.29-.08.63.02.85h.01c-.1-.22-.11-.56-.03-.85Zm0,0c.03-.12.08-.23.14-.32-.07.08-.11.2-.14.32Zm5.96,2.96c.07-1.15.08-2.3.08-3.45,0,1.15-.02,2.3-.08,3.45Z"/>
      <path class="cls-3" d="m171.3,40.37c-.85-.04-1.69-.09-2.54-.05-2.96.12-5.78-.33-8.45-1.72-2.24-1.19-4.59-2.07-7.1-2.48h-.01c-.2-.04-.39-.06-.59-.09-.48-.07-.7-.31-.69-.79v-.44c.02-1.06,0-2.11.03-3.15.01-.9.14-.98,1.02-1.07,1.14-.12,2.29-.2,3.42-.43,1.8-.39,3.45-1.11,4.38-2.87.95-1.79,1.09-3.72,1-5.69-.03-.55-.47-.74-.95-.73-1.69.07-3.39.04-5.05.3-.97.13-1.86.71-2.77,1.12-.31.14-.59.38-1.1.71,0-.8-.02-1.4,0-2,.01-.46.27-.73.72-.82.46-.08.94-.16,1.37-.32,3.49-1.37,5.7-3.91,6-7.65.29-3.61.15-7.24.17-10.85,0-1.25-.55-1.62-1.66-1.06-1.12.56-2.22,1.23-3.25,1.95-.5.35-.74.33-1.17-.09-.67-.64-1.42-1.22-2.18-1.77-.56-.4-1.23-.47-1.84-.01-.77.6-1.55,1.19-2.25,1.89-.39.39-.61.4-1.04.09-1.01-.7-2-1.45-3.11-1.93-1.72-.73-1.89-.19-1.89,1.21,0,3.15.01,6.29.05,9.44.02,1.37.22,2.72.85,3.97,1.4,2.7,3.51,4.55,6.58,5.14.57.11.83.34.8.98-.05,1.14-.03,2.3-.03,3.44v1.94c-.19-.08-.28-.09-.35-.14-2.53-2.19-5.61-1.94-8.64-1.93-.63,0-.91.39-.87,1.02.07.81.08,1.64.19,2.46.42,3.42,1.73,4.97,5.09,5.79,1.22.29,2.49.39,3.75.49.5.04.71.17.74.57.01.06.01.13.01.22-.05.94-.02,1.02-.8,1.1-.07.02-.14.02-.22.03-.37.04-.73.12-1.11.17-2.41.38-4.54,1.5-6.7,2.51-1.93.91-3.89,1.49-6.04,1.42-1.46-.04-2.92.04-4.37.12-.73.05-.85.33-.72,1.04.14.7.66.73,1.18.74,1.58.01,3.16.12,4.72-.04,1.55-.15,3.1-.48,4.59-.94,1.21-.36,2.33-.99,3.47-1.55,4.53-2.21,9.07-2.3,13.65-.2,1.64.75,3.28,1.54,4.98,2.13,2.79.96,5.72.53,8.59.57.07,0,.15-.01.22-.04.57-.16.61-.63.61-1.11.02-.49-.32-.59-.69-.6Zm-17.58-33.74c.46-.61.94-1.19,1.45-1.75.68-.75,1.59-1.31,2.41-1.93.44-.34.67-.21.67.36-.01,1.67.03,3.34.02,5.01,0,1.15,0,2.3-.08,3.45-.13,2.61-1.64,4.48-3.81,5.83-.03.02-.06.02-.11.03-.05,0-.11.01-.19.02h0c-.08-.54-.17-1.06-.23-1.59-.19-1.65-.5-3.27-1.01-4.84-.17-.52-.37-1.04-.58-1.55h-.01c-.1-.23-.1-.57-.02-.86.03-.12.07-.24.14-.32h0c.44-.63.88-1.25,1.34-1.85h.01Zm-4.51-3.14c.1-.15.23-.28.36-.41.2-.2.42-.37.62-.55.05-.05.11-.1.17-.14.12-.09.24-.16.37-.2.16-.06.34-.05.53.05.04.02.08.04.12.07.1.07.2.12.3.19.31.21.56.4.75.58.07.06.13.12.18.18.06.05.1.11.13.16.08.11.13.22.15.33.03.15.02.3-.03.47-.03.1-.08.21-.14.32-.03.06-.07.12-.1.19-.11.19-.26.4-.44.64-.1.12-.19.24-.28.36-.28.37-.58.76-.94,1.23-.72-.93-1.37-1.77-2.02-2.62-.02-.02-.03-.04-.03-.06.03-.32.14-.57.3-.79Zm-.27,14.69c-.23-.08-.45-.16-.67-.25-.43-.19-.85-.41-1.24-.67-1.96-1.31-3.31-3.51-3.34-5.96-.04-2.68-.02-5.36-.03-8.03,0-.18.04-.36.07-.69h0l.36.21c.34.2.65.37.94.59,3.76,2.84,5.9,6.66,6.71,11.26.17.97.29,1.95.39,2.93.05.51-.01.75-.29.85-.09.04-.2.06-.34.07-.06.01-.14.02-.22.02-.8.02-1.59-.09-2.34-.33Z"/>
      <path class="cls-1" d="m151.84,18.42c-.09.03-.2.05-.34.07-.06,0-.14.01-.22.01-.8.02-1.59-.09-2.34-.32-.23-.08-.45-.16-.67-.25-.43-.19-.85-.41-1.24-.67-1.96-1.31-3.31-3.51-3.34-5.96-.04-2.68-.02-5.36-.03-8.03,0-.18.04-.36.07-.69h0l.36.21c.34.2.65.37.94.59,3.76,2.84,5.9,6.66,6.71,11.26.17.97.29,1.95.39,2.93.05.51-.01.75-.29.85Z"/>
      <path class="cls-1" d="m158.27,8.32c0,1.15,0,2.3-.08,3.45-.13,2.61-1.64,4.48-3.81,5.83-.03.02-.06.02-.11.03-.05,0-.11,0-.19.01-.08-.53-.17-1.05-.23-1.58-.19-1.65-.5-3.27-1.01-4.84-.17-.52-.36-1.04-.58-1.55h-.01c-.1-.23-.1-.57-.02-.86.03-.12.07-.24.14-.32h0c.44-.63.88-1.25,1.34-1.85h.01c.46-.62.94-1.2,1.45-1.76.68-.75,1.59-1.31,2.41-1.93.44-.34.67-.21.67.36-.01,1.67.03,3.34.02,5.01Z"/>
      <path class="cls-1" d="m152.86,4.22c-.03.1-.08.21-.14.32-.03.06-.07.12-.1.19-.12.19-.27.4-.45.64-.09.12-.18.24-.27.36-.28.37-.58.76-.94,1.23-.72-.93-1.37-1.77-2.02-2.62-.02-.02-.03-.04-.03-.06.03-.32.14-.57.3-.79.1-.15.23-.28.36-.41.2-.2.42-.37.62-.55.05-.05.11-.1.17-.14.12-.09.24-.16.37-.2.16-.05.34-.05.53.05.04.02.08.05.12.08.1.06.2.12.3.18.31.21.56.4.75.58.07.06.13.12.18.18.06.05.1.11.13.16.08.11.13.22.15.33.03.15.02.3-.03.47Z"/>
    </g>
  </g>
</svg>